<svg xmlns="http://www.w3.org/2000/svg" viewBox="0 0 178.58 178.58"><defs><style>.cls-1{fill:none;stroke:#1d1d1b;stroke-width:0.75px;}.cls-1,.cls-2{stroke-miterlimit:10;}.cls-2{font-size:57.92px;fill:#1d1d1b;stroke:#fff;font-family:BernardMT-Condensed, Bernard MT Condensed;}</style></defs><g id="Ebene_1" data-name="Ebene 1"><polyline class="cls-1" points="58.59 68.6 68.44 71.22 76.98 82.88"/><polyline class="cls-1" points="86.97 26.2 70.68 36.49 65.93 45.06 58 48.79 58.55 57.84 58.59 58.33 58.59 68.6 46.05 80.02 34.16 73.13 28.44 80.02 23.68 64.77 31.3 47.19 45.09 40.34 54.25 45.53 58 48.79"/><polyline class="cls-1" points="34.16 73.13 44.62 61.3 45.09 40.34"/><polyline class="cls-1" points="83.17 47.76 82.72 47.95 58.99 58.33 79.41 68.6"/><line class="cls-1" x1="58.99" y1="58.33" x2="73.87" y2="59.11"/><polyline class="cls-1" points="83.17 47.76 73.87 59.11 79.41 68.6"/><line class="cls-1" x1="73.3" y1="45.4" x2="82.63" y2="47.76"/><line class="cls-1" x1="70.68" y1="36.49" x2="73.3" y2="45.4"/><polyline class="cls-1" points="44.62 61.3 54.74 56.87 58.59 58.33"/><line class="cls-1" x1="54.7" y1="56.87" x2="44.62" y2="61.3"/><line class="cls-1" x1="58.99" y1="57.81" x2="73.3" y2="45.4"/><line class="cls-1" x1="54.25" y1="45.53" x2="54.74" y2="56.87"/><line class="cls-1" x1="33.68" y1="142.87" x2="100.05" y2="114.94"/><polygon class="cls-1" points="100.05 114.94 106.84 103.52 134.68 76.81 141.97 49.62 133.24 24.64 109.04 18.39 86.97 26.2 83.17 47.76 79.5 68.62 76.98 82.88 67.21 92.45 43.67 106.73 33.68 142.87 58.9 144.61 100.05 114.94"/><text class="cls-2" transform="translate(49.66 155.12)">DoDo</text></g></svg>