<svg xmlns="http://www.w3.org/2000/svg" viewBox="0 0 178.58 178.58"><defs><style>.cls-1{fill:none;stroke:#1d1d1b;stroke-miterlimit:10;stroke-width:0.75px;}</style></defs><g id="Ebene_1" data-name="Ebene 1"><polyline class="cls-1" points="69.59 68.6 79.44 71.22 87.98 82.88"/><polyline class="cls-1" points="97.97 26.2 81.68 36.49 76.93 45.06 69 48.79 69.56 57.84 69.59 58.33 69.59 68.6 57.05 80.02 45.16 73.13 39.44 80.02 34.68 64.77 42.3 47.19 56.09 40.34 65.25 45.53 69 48.79"/><polyline class="cls-1" points="45.16 73.13 55.62 61.3 56.09 40.34"/><polyline class="cls-1" points="94.17 47.76 93.72 47.95 69.99 58.33 90.41 68.6"/><line class="cls-1" x1="69.99" y1="58.33" x2="84.87" y2="59.11"/><polyline class="cls-1" points="94.17 47.76 84.87 59.11 90.41 68.6"/><line class="cls-1" x1="84.3" y1="45.4" x2="93.63" y2="47.76"/><line class="cls-1" x1="81.68" y1="36.49" x2="84.3" y2="45.4"/><polyline class="cls-1" points="55.62 61.3 65.74 56.87 69.59 58.33"/><line class="cls-1" x1="65.7" y1="56.87" x2="55.62" y2="61.3"/><line class="cls-1" x1="69.99" y1="57.81" x2="84.3" y2="45.4"/><line class="cls-1" x1="65.25" y1="45.53" x2="65.74" y2="56.87"/><line class="cls-1" x1="44.68" y1="142.87" x2="111.05" y2="114.94"/><polygon class="cls-1" points="111.05 114.94 117.84 103.52 145.68 76.81 152.97 49.62 144.24 24.64 120.04 18.39 97.97 26.2 94.17 47.76 90.5 68.62 87.98 82.88 78.21 92.45 54.67 106.73 44.68 142.87 69.9 144.61 111.05 114.94"/></g></svg>