<?xml version="1.0" encoding="utf-8"?>
<svg xmlns="http://www.w3.org/2000/svg" xmlns:xlink="http://www.w3.org/1999/xlink" width="87.077" height="100" viewBox="0 0 87.077 100">
  <defs>
    <clipPath id="clip-path">
      <rect width="87.077" height="100" fill="none"/>
    </clipPath>
    <clipPath id="clip-path-2">
      <path id="Path_11" data-name="Path 11" d="M0-64.572H87.077v-100H0Z" transform="translate(0 0)" fill="none"/>
    </clipPath>
  </defs>
  <g id="Logo_BM_WM_weiß" data-name="Logo BM+WM weiß" clip-path="url(#clip-path)">
    <g id="Group_11" data-name="Group 11" transform="translate(0 164.572)" clip-path="url(#clip-path-2)">
      <g id="Group_9" data-name="Group 9" transform="translate(0 -103.725)">
        <path id="Path_9" data-name="Path 9" d="M-51.4-16.362c-1.464,0-2.231.631-2.231,1.442,0,2.3,6.535.992,6.535,5.3,0,2.163-1.78,3.448-4.642,3.448A9.363,9.363,0,0,1-55.971-7.19l.744-1.758a8.426,8.426,0,0,0,3.4.811c1.757,0,2.456-.653,2.456-1.442,0-2.321-6.535-.969-6.535-5.3,0-2.1,1.667-3.425,4.349-3.425a10.1,10.1,0,0,1,4.011.879l-.744,1.735a8.825,8.825,0,0,0-3.11-.676m-9.014,9.983-.315-1.713A3.9,3.9,0,0,1-64.49-6.176c-2.929,0-4.462-1.78-4.462-4.89V-18.1h2.434v6.874c0,1.735.812,2.7,2.569,2.7,1.983,0,2.953-1.172,2.953-2.637V-18.1h2.479V-6.378ZM-77.29-16.159A3.651,3.651,0,0,0-80.9-12.215a3.6,3.6,0,0,0,3.606,3.9,3.635,3.635,0,0,0,3.515-3.9,3.676,3.676,0,0,0-3.515-3.944m.383,9.983a4.167,4.167,0,0,1-3.718-1.667v5.3h-2.456V-18.1h1.96l.315,1.735A4.524,4.524,0,0,1-76.884-18.3c3.358,0,5.612,2.637,5.612,6.084,0,3.177-2.073,6.039-5.634,6.039m-11.741-.2V-13.59a2.137,2.137,0,0,0-2.3-2.366,2.6,2.6,0,0,0-2.592,2.839v6.739h-2.434V-13.7a2.151,2.151,0,0,0-2.3-2.253,2.625,2.625,0,0,0-2.592,2.839v6.739h-2.479V-18.1h1.893l.406,1.8A3.763,3.763,0,0,1-97.73-18.3a3.811,3.811,0,0,1,3.516,2.253A4.2,4.2,0,0,1-90.653-18.3c2.929,0,4.484,1.555,4.484,4.71v7.211Zm-20.6-5.274a11.492,11.492,0,0,0-2.344-.225c-1.352,0-3.11.248-3.11,1.893,0,1.285,1.082,1.871,2.344,1.871,1.555,0,3.11-.969,3.11-2.321Zm2.186,5.274c-.9,0-1.938-.406-1.938-1.511v-.2a3.875,3.875,0,0,1-3.741,1.915c-2.321,0-4.191-1.307-4.191-3.764,0-2.681,2.254-3.65,5-3.65a22.228,22.228,0,0,1,2.681.18v-.653c0-1.825-1.195-2.231-2.547-2.231a18.462,18.462,0,0,0-3.674.473l-.45-1.735a16.151,16.151,0,0,1,4.53-.743c2.84,0,4.462,1.261,4.462,3.853v5.431c0,.361.2.451.586.451a8.813,8.813,0,0,0,.924-.067v1.938a4.973,4.973,0,0,1-1.645.316m-11.854-9.195a6.388,6.388,0,0,0-2.592-.586,3.851,3.851,0,0,0-3.944,3.944,3.861,3.861,0,0,0,3.921,3.9,6.67,6.67,0,0,0,2.614-.563l.766,1.825a8.061,8.061,0,0,1-3.7.879,6.093,6.093,0,0,1-6.107-6.084,6.112,6.112,0,0,1,6.287-6.039,7.781,7.781,0,0,1,3.606.9Zm69.7-20.268A4.449,4.449,0,0,0-53.628-31.6h8.383a4.083,4.083,0,0,0-3.966-4.236m5.229,5.3h-9.623a4.462,4.462,0,0,0,4.642,4.259,9.4,9.4,0,0,0,3.651-.856l.473,1.127A9.834,9.834,0,0,1-48.963-25a5.854,5.854,0,0,1-6.062-6.039,5.836,5.836,0,0,1,5.746-6.084c3.4,0,5.364,2.929,5.364,5.9a2.609,2.609,0,0,1-.067.676M-60.14-32.009v6.8h-1.352V-36.877h1.082l.2,2.073a3.773,3.773,0,0,1,3.786-2.118v1.33a3.4,3.4,0,0,0-3.718,3.583m-6.738,1.239a16.364,16.364,0,0,0-3.155-.36c-1.8,0-3.853.5-3.853,2.411,0,1.69,1.577,2.524,3.064,2.524,2.051,0,3.944-1.577,3.944-3.29Zm1.6,5.566c-.7,0-1.532-.36-1.532-1.239v-.811A4.686,4.686,0,0,1-71.025-25c-2.186,0-4.191-1.24-4.191-3.673,0-2.659,2.366-3.628,5.048-3.628a21.342,21.342,0,0,1,3.29.316V-33.2c0-2.118-1.33-2.7-3.2-2.7a14.5,14.5,0,0,0-3.718.518l-.293-1.059a14.1,14.1,0,0,1,4.214-.676c2.907,0,4.349,1.1,4.349,3.763v6.355c0,.405.27.518.654.518a6.88,6.88,0,0,0,.811-.068v1.15a4.168,4.168,0,0,1-1.217.2m-15.122,0h-1.465l-2.974-9.825L-87.814-25.2h-1.465l-3.9-11.718h1.443l3.155,9.96h.067l2.952-9.96h1.443l2.952,9.96h.067l3.155-9.96H-76.5ZM-95.679-26.4a9.783,9.783,0,0,0,1.555-.158l.2.992a5.921,5.921,0,0,1-1.938.36c-2.434,0-3.154-1.374-3.154-3.808V-35.8h-1.758v-1.128h1.758l.247-3.381h1.1v3.381h3.132V-35.8h-3.132v6.85c0,1.6.518,2.547,1.983,2.547m-4.709-13.95a8.038,8.038,0,0,0-1.24-.135c-1.532,0-1.893,1.082-1.893,2.344v1.217h3.087V-35.8h-3.087V-25.2h-1.353V-35.8h-1.577v-.9l1.577-.225v-1.262c0-2.209.766-3.516,3.155-3.516a6.373,6.373,0,0,1,1.464.18Zm-13.928,4.507a4.7,4.7,0,0,0-4.665,4.8,4.694,4.694,0,0,0,4.665,4.755,4.709,4.709,0,0,0,4.665-4.755,4.719,4.719,0,0,0-4.665-4.8m0,10.839a6.006,6.006,0,0,1-6.017-6.039,6.016,6.016,0,0,1,6.017-6.084,6,6,0,0,1,6.017,6.084A6.007,6.007,0,0,1-114.316-25m-12.417-10.93c-1.69,0-2.862.7-2.862,1.983,0,3.042,7.076,1.465,7.076,5.7,0,2.005-1.645,3.245-4.326,3.245a9.611,9.611,0,0,1-4.147-.969l.451-1.082a8.851,8.851,0,0,0,3.673.857c2.005,0,3.042-.811,3.042-2.028,0-3.087-7.076-1.443-7.076-5.7,0-1.915,1.51-3.2,4.1-3.2a9.942,9.942,0,0,1,3.763.789l-.45,1.059a9.484,9.484,0,0,0-3.245-.654" transform="translate(130.992 41.7)" fill="#fff"/>
      </g>
      <g id="Group_10" data-name="Group 10" transform="translate(19.663 -164.572)">
        <path id="Path_10" data-name="Path 10" d="M-10.255-7.089A1.219,1.219,0,0,0-9.036-5.87,1.218,1.218,0,0,0-7.817-7.089,1.218,1.218,0,0,0-9.036-8.308a1.219,1.219,0,0,0-1.219,1.219m-4.565-.129a.733.733,0,0,0-.732.733.732.732,0,0,0,.732.732.732.732,0,0,0,.733-.732.733.733,0,0,0-.733-.733m-1.693,3.654a.732.732,0,0,0-1.035,0,.732.732,0,0,0,0,1.035.732.732,0,0,0,1.035,0,.731.731,0,0,0,0-1.035M-16.6,1.155a1.22,1.22,0,0,0-1.724,0,1.218,1.218,0,0,0,0,1.724,1.219,1.219,0,0,0,1.724,0,1.219,1.219,0,0,0,0-1.724m-4.953,1.269a.731.731,0,0,0-1.035,0,.732.732,0,0,0,0,1.035.732.732,0,0,0,1.035,0,.732.732,0,0,0,0-1.035m3.087,6.268a.733.733,0,0,0-1.036,0,.733.733,0,0,0,0,1.036.732.732,0,0,0,1.036,0,.732.732,0,0,0,0-1.036m4.579,3.645a.732.732,0,0,0-1.036,0,.732.732,0,0,0,0,1.036.732.732,0,0,0,1.036,0,.733.733,0,0,0,0-1.036m6.452,3.229a.732.732,0,0,0-.733.732.733.733,0,0,0,.733.733A.732.732,0,0,0-6.7,16.3a.732.732,0,0,0-.732-.732m1.8-17.378a.732.732,0,0,0-.733-.732.732.732,0,0,0-.732.732.733.733,0,0,0,.732.733.733.733,0,0,0,.733-.733m-.918-5.276A2.486,2.486,0,0,1-8.459-4.671v8.39l1.736-1.483v-2.6A1.494,1.494,0,0,1-7.858-1.813,1.5,1.5,0,0,1-6.363-3.308,1.494,1.494,0,0,1-4.868-1.813,1.494,1.494,0,0,1-6.015-.36V2.462L-8.461,4.523v5.7l4.521,4.541v.1h0l0,15.766A6.336,6.336,0,0,1-5.117,30V19.1l-1.561-1.514a1.49,1.49,0,0,1-.754.205A1.494,1.494,0,0,1-8.927,16.3,1.494,1.494,0,0,1-7.432,14.8,1.494,1.494,0,0,1-5.938,16.3a1.486,1.486,0,0,1-.247.822l1.067,1.046V15.236l-2.051-2.051-5.782.013a1.49,1.49,0,0,1-.4.713,1.5,1.5,0,0,1-2.114,0,1.5,1.5,0,0,1,0-2.114,1.494,1.494,0,0,1,2.114,0,1.48,1.48,0,0,1,.4.726h5.116l-.452-.452H-9.7v-.04h-.043l-2.444-2.445-5.338-.028a1.486,1.486,0,0,1-.395.709,1.494,1.494,0,0,1-2.114,0,1.494,1.494,0,0,1,0-2.114,1.5,1.5,0,0,1,2.114,0,1.483,1.483,0,0,1,.4.726l4.625,0-1.65-1.65h-3.722l-3.012-3.013A1.494,1.494,0,0,1-23.125,4a1.494,1.494,0,0,1,0-2.114,1.494,1.494,0,0,1,2.114,0,1.5,1.5,0,0,1,.224,1.825l2.825,2.824,3.738.017L-9.369,11.4l.418,0-.67-.67-.019.008v-.049l-2.208-2.208-.01.01V8.474l-4.325-4.325a2.486,2.486,0,0,1-3.036-.373,2.488,2.488,0,0,1,0-3.519,2.489,2.489,0,0,1,3.518,0,2.487,2.487,0,0,1,.358,3.062L-11.859,6.8V6.36l-2.366-2.366L-14.29.209l-1.974-1.974a1.493,1.493,0,0,1-1.824-.224,1.494,1.494,0,0,1,0-2.114,1.5,1.5,0,0,1,2.114,0,1.5,1.5,0,0,1,.215,1.84L-13.6-.1l.047,3.769,2.35,2.35,0,1.812-.01.01L-9.64,9.4V7.81L-10.666,6.8h0v-8.08l-3.713-3.776a1.489,1.489,0,0,1-.444.067,1.5,1.5,0,0,1-1.495-1.495A1.494,1.494,0,0,1-14.819-7.98a1.494,1.494,0,0,1,1.495,1.495,1.49,1.49,0,0,1-.44,1.059l3.811,3.9V6.556l.314.312V-4.678a2.487,2.487,0,0,1-1.884-2.411A2.488,2.488,0,0,1-9.036-9.577,2.487,2.487,0,0,1-6.548-7.089m.965,13.266a.733.733,0,0,0-.733-.733.733.733,0,0,0-.732.733.733.733,0,0,0,.732.732.733.733,0,0,0,.733-.732m2.921,8.067v16.7a4.434,4.434,0,0,1-.709-.132l0-16.341L-6.69,11.121v-3.5A1.494,1.494,0,0,1-7.811,6.177a1.5,1.5,0,0,1,1.495-1.5,1.5,1.5,0,0,1,1.495,1.5A1.5,1.5,0,0,1-5.98,7.632v3.217ZM1.666-11.7a.733.733,0,0,0-.732.732.733.733,0,0,0,.732.733.733.733,0,0,0,.733-.733.733.733,0,0,0-.733-.732M-1.049-15.11A1.449,1.449,0,0,0-2.5-16.56a1.45,1.45,0,0,0-1.449,1.45A1.449,1.449,0,0,0-2.5-13.661,1.449,1.449,0,0,0-1.049-15.11m-7.811.793a.871.871,0,0,0-.871.871.871.871,0,0,0,.871.871.871.871,0,0,0,.871-.871.871.871,0,0,0-.871-.871M-3.933,2.314a.732.732,0,0,0-.733.732.732.732,0,0,0,.733.732A.732.732,0,0,0-3.2,3.046a.732.732,0,0,0-.732-.732m.187,6.634a.733.733,0,0,0-.732.732.733.733,0,0,0,.732.733.733.733,0,0,0,.733-.733.733.733,0,0,0-.733-.732M1.666-9.477a1.483,1.483,0,0,1-.8-.232L-1.811-7.052V-2.4l1.285,1.28v31.71a4.728,4.728,0,0,1-1.433.359V11.937l-1-.986a1.484,1.484,0,0,1-.786.224A1.494,1.494,0,0,1-5.241,9.68,1.5,1.5,0,0,1-3.746,8.186,1.5,1.5,0,0,1-2.252,9.68a1.486,1.486,0,0,1-.231.8l.523.522V5.445l-.021.021L-3.147,4.316a1.486,1.486,0,0,1-.786.225A1.5,1.5,0,0,1-5.428,3.046a1.5,1.5,0,0,1,1.495-1.5,1.5,1.5,0,0,1,1.494,1.5,1.485,1.485,0,0,1-.23.795l.71.709V1.308h-.017L-4.43-1.154V-8.285L-7.979-11.9a1.767,1.767,0,0,1-.881.235,1.778,1.778,0,0,1-1.777-1.777A1.777,1.777,0,0,1-8.86-15.224a1.777,1.777,0,0,1,1.777,1.777,1.769,1.769,0,0,1-.293.978l3.79,3.889v7.157L-1.959.208V-.4l-1.255-1.25v-10.6A2.957,2.957,0,0,1-5.456-15.11,2.958,2.958,0,0,1-2.5-18.068,2.958,2.958,0,0,1,.46-15.11a2.956,2.956,0,0,1-2.271,2.874v4.245l2.206-2.2a1.484,1.484,0,0,1-.224-.783,1.5,1.5,0,0,1,1.495-1.494,1.494,1.494,0,0,1,1.495,1.494,1.5,1.5,0,0,1-1.495,1.5M16.221.707a.733.733,0,1,0,.733.733.733.733,0,0,0-.733-.733M8.438-1.871A1.219,1.219,0,0,0,7.218-3.09,1.219,1.219,0,0,0,6-1.871,1.219,1.219,0,0,0,7.218-.652a1.219,1.219,0,0,0,1.22-1.219M11.47,2.765a.733.733,0,1,0-.732.733.732.732,0,0,0,.732-.733m.412-7.912a.733.733,0,0,0-.733-.732.732.732,0,0,0-.732.732.732.732,0,0,0,.732.733.733.733,0,0,0,.733-.733m3.264,1.1a.733.733,0,0,0,.732-.733.733.733,0,0,0-.732-.732.733.733,0,0,0-.733.732.733.733,0,0,0,.733.733M4.039-4.476a.732.732,0,0,0-.732-.732.733.733,0,0,0-.733.732.733.733,0,0,0,.733.733.732.732,0,0,0,.732-.733M3.995,5.336a.733.733,0,1,0-.733.732.733.733,0,0,0,.733-.732M11.08-8.539a.732.732,0,0,0,.733-.732A.732.732,0,0,0,11.08-10a.732.732,0,0,0-.732.732.732.732,0,0,0,.732.732m-1.946-3.88a.733.733,0,0,0-.733-.733.733.733,0,0,0-.732.733.732.732,0,0,0,.732.732.732.732,0,0,0,.733-.732M5.982-15.4a.87.87,0,0,0-.871-.871.871.871,0,0,0-.871.871.871.871,0,0,0,.871.871.871.871,0,0,0,.871-.871m-1.4,30.892a.733.733,0,1,0-.733-.732.732.732,0,0,0,.733.732m4.8-3.33a.732.732,0,1,0,0-1.035.732.732,0,0,0,0,1.035M14.768,6.7a.732.732,0,1,0,0-1.036.732.732,0,0,0,0,1.036m1.452-3.766a1.488,1.488,0,0,1-.8-.231L9.182,8.949,12,8.937l1.985-2.026a1.491,1.491,0,1,1,.482.521l-2.157,2.2H8.54l-1.7,1.7,1.6.011a1.5,1.5,0,1,1,.019.678l-3.4-.034h-.6L.62,15.827v2.434l2.719-2.683a1.5,1.5,0,1,1,.493.467L.652,19.161.62,19.128V29.973a6.682,6.682,0,0,1-.844.486V-5.416l5-5.1v-3.138A1.778,1.778,0,0,1,3.334-15.4a1.778,1.778,0,0,1,1.777-1.777A1.778,1.778,0,0,1,6.89-15.4a1.778,1.778,0,0,1-1.272,1.7v3.5L3.266-7.811H5.2L8.04-10.238v-.732a1.493,1.493,0,0,1-1.133-1.449A1.494,1.494,0,0,1,8.4-13.914,1.494,1.494,0,0,1,9.9-12.419a1.494,1.494,0,0,1-1.147,1.452v.953l-2.61,2.2,3.147,0,.52-.6a1.491,1.491,0,0,1-.267-.852,1.5,1.5,0,0,1,1.495-1.495,1.494,1.494,0,0,1,1.495,1.495,1.494,1.494,0,0,1-1.495,1.495,1.489,1.489,0,0,1-.7-.173l-.659.767-7.033,0L.62-5.122V9.33L2.853,7.423V6.772a1.493,1.493,0,1,1,.71.027v.848L.62,10.25v3.927L5.592,9.189V3.936l-2.631-2.7v-4.26A1.493,1.493,0,0,1,1.812-4.476,1.494,1.494,0,0,1,3.307-5.971,1.494,1.494,0,0,1,4.8-4.476,1.5,1.5,0,0,1,3.67-3.027V.967L6.3,3.689V8.478l.313-.315V6.671H6.6l.014-.014V.54A2.487,2.487,0,0,1,4.731-1.871,2.488,2.488,0,0,1,7.218-4.358,2.488,2.488,0,0,1,9.707-1.871,2.487,2.487,0,0,1,7.517.6V5.753l.591-.591V1.814L10.74-.907v-2.8A1.5,1.5,0,0,1,9.654-5.147a1.5,1.5,0,0,1,1.495-1.495,1.5,1.5,0,0,1,1.495,1.495,1.5,1.5,0,0,1-1.2,1.465v2.133L13.876-3.99a1.483,1.483,0,0,1-.224-.784A1.5,1.5,0,0,1,15.146-6.27a1.5,1.5,0,0,1,1.495,1.495A1.494,1.494,0,0,1,15.146-3.28a1.486,1.486,0,0,1-.8-.231L11.212-.369,11.2-.382,8.818,2.062V5.386L7.54,6.671H7.525v.343l2.8-2.395V4.2a1.492,1.492,0,1,1,.71.028v.614L7.525,7.95v.914l.029.029L5.129,11.317l.431,0h.286L8.213,8.954h.026L14.95,2.223a1.493,1.493,0,1,1,1.271.711M-2.565,36.425c-10.547,0-19.608-1.446-23.571-3.515l1.086-1.083c4.386,1.8,12.81,3.015,22.486,3.015s18.094-1.216,22.481-3.013L21,32.914c-3.967,2.067-13.024,3.511-23.564,3.511" transform="translate(26.136 18.068)" fill="#fff"/>
      </g>
    </g>
  </g>
</svg>
