<svg xmlns="http://www.w3.org/2000/svg" xmlns:xlink="http://www.w3.org/1999/xlink" viewBox="0 0 246.03 243.53"><defs><style>.cls-1{fill:#d3e9dd;}.cls-1,.cls-11,.cls-14,.cls-17,.cls-2,.cls-4,.cls-5,.cls-8{stroke:#1d1d1b;stroke-miterlimit:10;}.cls-2{fill:#9fd2b9;}.cls-3,.cls-7{font-size:12px;}.cls-14,.cls-3,.cls-6,.cls-7{fill:#1d1d1b;}.cls-3{font-family:ArialMT, Arial;}.cls-4{fill:#bbdecb;}.cls-17,.cls-5{fill:none;}.cls-7{font-family:Arial-BoldMT, Arial;font-weight:700;}.cls-8{fill:#81c6a6;}.cls-9{fill:#010101;}.cls-10{isolation:isolate;}.cls-11,.cls-16{fill:#fff;}.cls-12{letter-spacing:-0.06em;}.cls-13{opacity:0.35;mix-blend-mode:multiply;}.cls-15{letter-spacing:-0.04em;}.cls-17{stroke-dasharray:2 2;}</style><symbol id="Neues_Symbol_6" data-name="Neues Symbol 6" viewBox="0 0 138.12 138.12"><path class="cls-9" d="M69.06,63a6.74,6.74,0,0,0-1.11.1L49.43,31a2,2,0,1,0-3.5,2L64.45,65.12A6.06,6.06,0,0,0,67,74.78v45.13a2,2,0,0,0,4,0V74.78a6.07,6.07,0,0,0-2-11.79Zm0,8.09a2,2,0,1,1,2-2A2,2,0,0,1,69.06,71.08Z"/><path class="cls-9" d="M117.89,20.23a69.06,69.06,0,1,0-97.66,97.66,69.06,69.06,0,1,0,97.66-97.66ZM69.06,134.07a65,65,0,1,1,65-65A65.08,65.08,0,0,1,69.06,134.07Z"/><circle class="cls-9" cx="69.06" cy="18.21" r="2.02"/><circle class="cls-9" cx="43.63" cy="25.02" r="2.02"/><circle class="cls-9" cx="25.02" cy="43.63" r="2.02"/><circle class="cls-9" cx="18.21" cy="69.06" r="2.02"/><circle class="cls-9" cx="25.02" cy="94.48" r="2.02"/><circle class="cls-9" cx="43.63" cy="113.1" r="2.02"/><circle class="cls-9" cx="94.48" cy="113.1" r="2.02"/><circle class="cls-9" cx="113.1" cy="94.48" r="2.02"/><circle class="cls-9" cx="119.91" cy="69.06" r="2.02"/><circle class="cls-9" cx="113.1" cy="43.63" r="2.02"/><circle class="cls-9" cx="94.48" cy="25.02" r="2.02"/><path class="cls-9" d="M112.17,26A61,61,0,0,0,29,23.09a2,2,0,1,0,2.66,3.05,56.91,56.91,0,1,1-5.53,5.53A2,2,0,1,0,23.09,29,61,61,0,1,0,112.17,26Z"/></symbol><symbol id="Neues_Symbol_7" data-name="Neues Symbol 7" viewBox="0 0 456.21 480"><g id="Outline"><path class="cls-9" d="M360,440a8,8,0,0,0-8,8v16H16V376a8,8,0,0,0-16,0v96a8,8,0,0,0,8,8H360a8,8,0,0,0,8-8V448A8,8,0,0,0,360,440Z"/><path class="cls-9" d="M8,352a8,8,0,0,0,8-8V64H72V88a8,8,0,0,0,8,8h48a8,8,0,0,0,0-16H88V48h16a24,24,0,0,0,24-24,8,8,0,0,1,8-8h96a8,8,0,0,1,8,8,24,24,0,0,0,24,24h16V80H160a8,8,0,0,0,0,16H288a8,8,0,0,0,8-8V64h56V208a8,8,0,0,0,16,0V56a8,8,0,0,0-8-8H296V40a8,8,0,0,0-8-8H264a8,8,0,0,1-8-8A24,24,0,0,0,232,0H136a24,24,0,0,0-24,24,8,8,0,0,1-8,8H80a8,8,0,0,0-8,8v8H8a8,8,0,0,0-8,8V344A8,8,0,0,0,8,352Z"/><path class="cls-9" d="M452.21,344.29l-12.74-7.35a75.23,75.23,0,0,0,0-17.87l12.74-7.36a8,8,0,0,0,2.94-10.92h0l-24-41.6a8,8,0,0,0-10.92-2.93h0l-12.75,7.36A79.35,79.35,0,0,0,392,254.74V240a8,8,0,0,0-8-8H336a8,8,0,0,0-8,8v14.74a79,79,0,0,0-15.46,8.92l-12.75-7.37a8,8,0,0,0-10.93,2.92h0l-24,41.6a8,8,0,0,0,2.93,10.92h0l12.74,7.36a75.23,75.23,0,0,0,0,17.87l-12.74,7.35a8,8,0,0,0-2.94,10.93h0l24,41.6a8,8,0,0,0,10.92,2.93h0l17.47-10.08a8,8,0,0,0-8-13.87l-10.54,6.09-16-27.71,10.54-6.08a8,8,0,0,0,3.86-8.39,61.55,61.55,0,0,1,0-23.35,8,8,0,0,0-3.86-8.39l-10.54-6.08,16-27.71,10.54,6.09a8,8,0,0,0,9.2-.86,63.41,63.41,0,0,1,20.21-11.65,8,8,0,0,0,5.33-7.61V248h32v12.18a8,8,0,0,0,5.33,7.55,63.41,63.41,0,0,1,20.21,11.65,8,8,0,0,0,9.2.85l10.54-6.09,16,27.72-10.54,6.08a8,8,0,0,0-3.86,8.39,61.49,61.49,0,0,1,0,23.34,8,8,0,0,0,3.86,8.39l10.54,6.08-16,27.72-10.54-6.09a8,8,0,0,0-9.2.85,63.41,63.41,0,0,1-20.21,11.65,8,8,0,0,0-5.33,7.55V408H344v-4.18a8,8,0,1,0-16,0V416a8,8,0,0,0,8,8h48a8,8,0,0,0,8-8V401.26a79,79,0,0,0,15.46-8.92l12.75,7.37a8,8,0,0,0,10.93-2.92h0l24-41.6a8,8,0,0,0-2.93-10.92h0Z"/><path class="cls-9" d="M360,368a40,40,0,1,0-40-40A40,40,0,0,0,360,368Zm0-64a24,24,0,1,1-24,24A24,24,0,0,1,360,304Z"/><path class="cls-9" d="M294.35,169.86l-16-27.72a8,8,0,0,0-10.93-2.92l-11.63,6.72a54.27,54.27,0,0,0-7.79-4.49V128a8,8,0,0,0-8-8H208a8,8,0,0,0-8,8v13.45a54.27,54.27,0,0,0-7.79,4.49l-11.63-6.72a8,8,0,0,0-10.93,2.92l-16,27.72a8,8,0,0,0,2.93,10.92l11.61,6.72c-.13,1.51-.19,3-.19,4.5s.06,3,.19,4.5l-11.61,6.72a8,8,0,0,0,8,13.85l16.22-9.39a8,8,0,0,0,3.87-8.38,38.15,38.15,0,0,1,0-14.6,8,8,0,0,0-3.87-8.38l-9.33-5.39,8-13.86,9.33,5.39a8,8,0,0,0,9.2-.84,39.59,39.59,0,0,1,12.63-7.28,8,8,0,0,0,5.37-7.55V136h16v10.79a8,8,0,0,0,5.34,7.55A39.59,39.59,0,0,1,250,161.62a8,8,0,0,0,9.2.84l9.33-5.39,8,13.86-9.3,5.39a8,8,0,0,0-3.87,8.38,38.15,38.15,0,0,1,0,14.6,8,8,0,0,0,3.87,8.38l9.33,5.39-8,13.86-9.33-5.39a8,8,0,0,0-9.2.84,39.59,39.59,0,0,1-12.63,7.28,8,8,0,0,0-5.34,7.55V248H216V237.21a8,8,0,0,0-5.34-7.55A39.59,39.59,0,0,1,198,222.38a8,8,0,0,0-9.2-.84l-16.25,9.39a8,8,0,0,0,8,13.85l11.63-6.72a54.27,54.27,0,0,0,7.79,4.49V256a8,8,0,0,0,8,8h32a8,8,0,0,0,8-8V242.55a54.27,54.27,0,0,0,7.79-4.49l11.63,6.72a8,8,0,0,0,10.93-2.92l16-27.72a8,8,0,0,0-2.93-10.92l-11.61-6.72c.13-1.51.19-3,.19-4.5s-.06-3-.19-4.5l11.61-6.72A8,8,0,0,0,294.35,169.86Z"/><path class="cls-9" d="M248,192a24,24,0,1,0-24,24A24,24,0,0,0,248,192Zm-32,0a8,8,0,1,1,8,8A8,8,0,0,1,216,192Z"/><path class="cls-9" d="M304,192a8,8,0,0,0,8,8,8,8,0,0,1,8,8,8,8,0,0,0,16,0,24,24,0,0,0-24-24A8,8,0,0,0,304,192Z"/><path class="cls-9" d="M240,312a8,8,0,0,0,0-16,8,8,0,0,1-8-8,8,8,0,0,0-16,0A24,24,0,0,0,240,312Z"/><path class="cls-9" d="M134.14,162.88a8,8,0,0,0-11.26-1l-2.88,2.4V160a8,8,0,0,0-8-8H48a8,8,0,0,0-8,8v64a8,8,0,0,0,8,8h64a8,8,0,0,0,8-8V185.08l13.12-10.94A8,8,0,0,0,134.14,162.88ZM104,216H56V168h48v9.6L80.5,197.19,69.66,186.36a8,8,0,1,0-11.51,11.12l.19.19,16,16a8,8,0,0,0,10.78.49L104,198.4Z"/><path class="cls-9" d="M48,336h64a8,8,0,0,0,8-8V264a8,8,0,0,0-8-8H48a8,8,0,0,0-8,8v64A8,8,0,0,0,48,336Zm43.31-40L104,283.31v25.38Zm1.38,24H67.31L80,307.31ZM80,284.69,67.31,272H92.69ZM68.69,296,56,308.69V283.31Z"/><path class="cls-9" d="M40,424a8,8,0,0,0,8,8h64a8,8,0,0,0,8-8V385.08l13.12-10.94a8,8,0,0,0-10.24-12.28l-2.88,2.4V360a8,8,0,0,0-8-8H48a8,8,0,0,0-8,8Zm16-56h48v9.6L80.5,397.19,69.66,386.36a8,8,0,1,0-11.51,11.12l.19.19,16,16a8,8,0,0,0,10.78.49L104,398.4V416H56Z"/><path class="cls-9" d="M152,336h48a8,8,0,0,0,0-16H152a8,8,0,0,0,0,16Z"/><path class="cls-9" d="M152,432H272a8,8,0,0,0,0-16H152a8,8,0,0,0,0,16Z"/><path class="cls-9" d="M152,400h64a8,8,0,0,0,0-16H152a8,8,0,0,0,0,16Z"/><path class="cls-9" d="M152,304h32a8,8,0,0,0,0-16H152a8,8,0,0,0,0,16Z"/></g></symbol><symbol id="Neues_Symbol_4" data-name="Neues Symbol 4" viewBox="0 0 270.49 140.26"><ellipse class="cls-1" cx="135.24" cy="70.13" rx="134.74" ry="69.63"/><ellipse class="cls-2" cx="204.65" cy="44.99" rx="40.04" ry="17.88"/><text class="cls-3" transform="translate(185.23 47.54)">Metrics</text><ellipse class="cls-4" cx="132.91" cy="110.48" rx="51.84" ry="20.57"/><text class="cls-3" transform="translate(95.9 114.32)">Maturity Model</text><path class="cls-5" d="M239.29,64.14c5.87,27.7-11.15,48.06-46.59,50.06"/><polygon class="cls-6" points="236.97 66.84 236.84 55.62 242.56 65.28 236.97 66.84"/><polygon class="cls-6" points="194.62 111.16 183.85 114.31 194.75 116.97 194.62 111.16"/><path class="cls-5" d="M72.54,112.89c-26.47-1.41-36.86-19.41-34.35-42.16"/><polygon class="cls-6" points="70.54 109.94 81.4 112.78 70.57 115.75 70.54 109.94"/><polygon class="cls-6" points="40.82 73.17 39.73 62 35.09 72.22 40.82 73.17"/><path class="cls-5" d="M68.24,28.23C90.9,14.77,150.68,11.7,180.75,24.46"/><polygon class="cls-6" points="71.72 29.37 61.48 33.95 68.06 24.86 71.72 29.37"/><polygon class="cls-6" points="177.62 26.22 188.58 28.61 180.29 21.05 177.62 26.22"/><text class="cls-7" transform="translate(90.95 73.3)">Framework</text><ellipse class="cls-8" cx="55.48" cy="48.87" rx="27.43" ry="15.09"/><text class="cls-3" transform="translate(39.81 52.13)">Goals</text></symbol><symbol id="Neues_Symbol_8" data-name="Neues Symbol 8" viewBox="0 0 122.47 123.78"><path class="cls-9" d="M33.22,36.48a2,2,0,0,1,2,2h3.91a5.87,5.87,0,1,0-11.73,0h3.91A2,2,0,0,1,33.22,36.48Z"/><path class="cls-9" d="M48.86,36.48a2,2,0,0,1,2,2h3.91a5.86,5.86,0,1,0-11.72,0h3.91A2,2,0,0,1,48.86,36.48Z"/><path class="cls-9" d="M50.61,47.17l.1-.3L47,45.64l-.09.3a6.19,6.19,0,0,1-11.73,0l-.1-.3-3.71,1.23.1.3a10.09,10.09,0,0,0,19.14,0Z"/><path class="cls-9" d="M97.72,61.89a9.59,9.59,0,0,0-2-5.86h5.92V65.8l20.85-15.64L101.63,34.53V44.3H95.71a9.61,9.61,0,0,0,2-5.86V20.85h9.77L91.86,0,76.22,20.85H86V36.48H69.27a8.32,8.32,0,0,0-.59-.87l.94-3.77A24.56,24.56,0,0,0,45.78,1.3H16.84a9,9,0,0,0-9,9v1.49a9,9,0,0,0,3.31,6.93,13.73,13.73,0,0,0,.72,18.66l.36.37a7.75,7.75,0,0,0,7.33,10.43H21A21.56,21.56,0,0,0,31,59.36l-1.35,6.71L15.78,68.58A19.21,19.21,0,0,0,0,87.49v35H82.08V110.75l9.78,13,15.63-20.85H97.72Zm7.82-13.68V42.35L116,50.16,105.54,58V52.12H59a21.22,21.22,0,0,0,2-3.91Zm-43-7.82V36.48a3.91,3.91,0,1,1,0,7.82h-.37A21.87,21.87,0,0,0,62.54,40.39Zm23.45,0a3.91,3.91,0,0,0,3.91-3.91V16.94H84L91.86,6.52l7.81,10.42H93.81v21.5A5.87,5.87,0,0,1,88,44.3H69.27a7.75,7.75,0,0,0,1.09-3.91ZM19.54,44.3a3.91,3.91,0,0,1,0-7.82v3.91a21,21,0,0,0,.38,3.91Zm0-12.06v.33a7.72,7.72,0,0,0-5.06,1.92,9.82,9.82,0,0,1,.13-13.76l.15-.15a8.91,8.91,0,0,0,2.08.27h.29a9,9,0,0,0,8.07-5l-3.5-1.75a5.09,5.09,0,0,1-4.57,2.83h-.29a5.12,5.12,0,0,1-5.11-5.12V10.33a5.12,5.12,0,0,1,5.11-5.12H45.78a20.66,20.66,0,0,1,20,25.68l-.55,2.21a7.59,7.59,0,0,0-2.74-.53,7.82,7.82,0,0,0-7.82-7.81H36.13a4.86,4.86,0,0,1-1.54-9.47l1.21-.4-1.24-3.71-1.2.4a8.74,8.74,0,0,0-6,8.32,7.93,7.93,0,0,0,.06,1l-2.18,1.31a11.76,11.76,0,0,0-5.7,10.05Zm3.91,8.15V32.24a7.86,7.86,0,0,1,3.8-6.7l1.5-.9a8.79,8.79,0,0,0,7.38,4H54.72a3.92,3.92,0,0,1,3.91,3.91v7.82a17.59,17.59,0,1,1-35.18,0ZM77.87,75.48a19.13,19.13,0,0,0-11.56-6.89L52.47,66.07,52,63.84H86v39.09H82.08V87.49A19.28,19.28,0,0,0,77.87,75.48ZM58.27,96.8l-12.1,14.51L52.34,92.8l3.44-1ZM19.54,71.87l3-.55,5.66,17-8.7-2.49Zm31.65-2.06,4.43.8-3,8.9-8-5.75ZM38.79,87.3H43.3l2.25,13.52L41,114.34l-4.5-13.52Zm9.4,5.59-1.25-7.48L48,81l3.34,2.39Zm-3.6-14.34-1.18,4.84H38.67l-1.18-4.84L41,76ZM34.07,81l1.07,4.41-1.25,7.48-3.17-9.5ZM26.31,91.82l3.43,1,6.17,18.51L23.82,96.8Zm27.53-3.51,5.66-17,3,.55V85.82ZM41,61.89a21.22,21.22,0,0,0,6.41-1l1.18,5.88L41,71.34l-7.58-4.55,1.17-5.88a21.27,21.27,0,0,0,6.41,1ZM30.89,69.81l6.59,4-8,5.75-3-8.9Zm-27,17.68A15.27,15.27,0,0,1,15.64,72.62V88.77l6.84,2-3.3,6.61,17.69,21.23H15.64V93.16H11.73v25.41H3.91Zm74.27,31.08H70.36V93.16H66.45v25.41H45.21l17.7-21.23L59.6,90.73l6.85-2V72.62A15.3,15.3,0,0,1,78.18,87.49Zm21.49-11.73-7.81,10.42L84,106.84H89.9v-43A3.91,3.91,0,0,0,86,59.94H51.24l-.11-.58A21.47,21.47,0,0,0,55.75,56H88a5.87,5.87,0,0,1,5.86,5.86v45Z"/></symbol></defs><g class="cls-10"><g id="Ebene_1" data-name="Ebene 1"><rect class="cls-11" x="50.7" y="186.14" width="157.52" height="40.66"/><text class="cls-3" transform="translate(79.06 204.23)">Maturity Level &amp; <tspan x="-18.68" y="14.4" xml:space="preserve"> Recommended</tspan><tspan class="cls-12" x="66.03" y="14.4"> </tspan><tspan x="68.7" y="14.4">Actions</tspan></text><path class="cls-5" d="M72.14,30.29l40.64,42.6L112.87,189c8.23,3,10.71,2.3,17.66,0V72.48l42.19-42.19"/><ellipse class="cls-5" cx="122.43" cy="29.25" rx="50.29" ry="8.34"/><g class="cls-13"><rect class="cls-14" x="140.65" y="45.95" width="93.03" height="20.02"/><text class="cls-3" transform="translate(145.05 59.17)">Real-<tspan class="cls-15" x="28.68" y="0">T</tspan><tspan x="35.56" y="0">ime-Data</tspan></text></g><rect class="cls-11" x="139.24" y="44.54" width="93.03" height="20.02"/><text class="cls-3" transform="translate(143.63 57.75)">Real-<tspan class="cls-15" x="28.68" y="0">T</tspan><tspan x="35.56" y="0">ime-Data</tspan></text><rect class="cls-16" x="113.39" y="180.1" width="16.63" height="7.42"/><rect class="cls-11" x="201.76" y="62.46" width="20.2" height="21.76"/><rect class="cls-11" x="198.14" y="61.35" width="27.43" height="5.72"/><rect class="cls-11" x="198.14" y="70.48" width="27.43" height="5.72"/><rect class="cls-11" x="198.14" y="79.9" width="27.43" height="5.72"/><rect class="cls-6" x="200.68" y="63.13" width="2.16" height="2.16"/><rect class="cls-6" x="205.09" y="63.13" width="2.16" height="2.16"/><rect class="cls-6" x="209.42" y="63.13" width="2.16" height="2.16"/><rect class="cls-6" x="215.37" y="63.13" width="8.21" height="2.16"/><rect class="cls-6" x="200.68" y="72.26" width="2.16" height="2.16"/><rect class="cls-6" x="205.09" y="72.26" width="2.16" height="2.16"/><rect class="cls-6" x="209.42" y="72.26" width="2.16" height="2.16"/><rect class="cls-6" x="215.37" y="72.26" width="8.21" height="2.16"/><rect class="cls-6" x="200.68" y="81.68" width="2.16" height="2.16"/><rect class="cls-6" x="205.09" y="81.68" width="2.16" height="2.16"/><rect class="cls-6" x="209.42" y="81.68" width="2.16" height="2.16"/><rect class="cls-6" x="215.37" y="81.68" width="8.21" height="2.16"/><circle class="cls-16" cx="222.34" cy="81.68" r="12.96"/><use width="138.12" height="138.12" transform="translate(209.38 68.72) scale(0.19)" xlink:href="#Neues_Symbol_6"/><rect class="cls-16" x="8.03" y="54.73" width="19.91" height="25.96"/><use width="456.22" height="480" transform="translate(8.03 54.73) scale(0.05)" xlink:href="#Neues_Symbol_7"/><line class="cls-5" x1="106.22" y1="29.25" x2="106.5" y2="30.21"/><polyline class="cls-17" points="107.08 32.12 117.66 67.52 117.66 177.41"/><line class="cls-5" x1="117.66" y1="178.4" x2="117.66" y2="179.4"/><polygon class="cls-6" points="114.75 177.42 117.66 188.26 120.56 177.42 114.75 177.42"/><line class="cls-5" x1="137.29" y1="29.25" x2="137.01" y2="30.21"/><polyline class="cls-17" points="136.43 32.12 125.85 67.52 125.85 177.41"/><line class="cls-5" x1="125.85" y1="178.4" x2="125.85" y2="179.4"/><polygon class="cls-6" points="122.95 177.42 125.85 188.26 128.76 177.42 122.95 177.42"/><use width="270.49" height="140.26" transform="translate(44.58 81.28) scale(0.59)" xlink:href="#Neues_Symbol_4"/><rect class="cls-16" x="107.63" y="49.08" width="26.54" height="11.31"/><text class="cls-7" transform="translate(115.33 57.75)">or</text><rect class="cls-16" x="196.77" y="190.93" width="42.69" height="43.56"/><use width="122.48" height="123.78" transform="translate(196.44 191.01) scale(0.35)" xlink:href="#Neues_Symbol_8"/><g class="cls-13"><rect class="cls-14" x="21.94" y="45.95" width="83.11" height="20.02"/><text class="cls-3" transform="translate(26.14 59.17)">Questionnaire</text></g><rect class="cls-11" x="20.52" y="44.54" width="83.11" height="20.02"/><text class="cls-3" transform="translate(24.72 57.75)">Questionnaire</text></g></g></svg>