<svg xmlns="http://www.w3.org/2000/svg" viewBox="0 0 2410 656.75"><defs><style>.cls-1{fill:#179c7d;}.cls-2{fill:#fff;}</style></defs><g id="Ebene_2" data-name="Ebene 2"><g id="Ebene_1-2" data-name="Ebene 1"><path class="cls-1" d="M0,392.5c92.75-48,229-125.25,390.75-238.25v-38C248.5,209.25,103.75,284,0,333.5Z"/><path class="cls-1" d="M0,279C103.5,237,248,171.75,390.75,87V68.25c-134,66.5-273.25,108-390.75,134Z"/><path class="cls-1" d="M390.75,392.75v-191c-89,75-177.25,140-251.25,191Z"/><path class="cls-1" d="M89.5,392.75C160,351,245.25,296.5,330.25,232.75c19.75-14.75,40-30,60.5-45.75V163.25C265,257.5,136.5,336,36.25,392.75Z"/><path class="cls-1" d="M0,174.5c114.25-20,254-56.25,390.75-121.25V32C253,93.75,115.25,120,0,129.25Z"/><path class="cls-1" d="M0,0V109.25c8.5-.5,17.25-1,26-1.75,95-7.25,224.75-24,364.75-84.75V0Z"/><path class="cls-2" d="M0,109.25v20C115.25,120,253,93.75,390.75,32V22.75C250.75,83.5,121,100.25,26,107.5c-8.75.75-17.5,1.25-26,1.75Z"/><path class="cls-2" d="M0,202.25c117.5-26,256.75-67.5,390.75-134v-15C254,118.25,114.25,154.5,0,174.5Z"/><path class="cls-2" d="M0,333.5C103.75,284,248.5,209.25,390.75,116.25V87C248,171.75,103.5,237,0,279Z"/><path class="cls-2" d="M89.5,392.75h50c74-51,162.25-116,251.25-191V187c-20.5,15.75-40.75,31-60.5,45.75C245.25,296.5,160,351,89.5,392.75Z"/><path class="cls-2" d="M0,392.75H36.25C136.5,336,265,257.5,390.75,163.25v-9C229,267.25,92.75,344.5,0,392.5Z"/><path d="M2296.25,392.5h50.25v-71c0-27.75,0-78.75,41-78.75,9,0,18,1.5,22.5,4.25V196.25c-5.25-1.5-10.5-1.5-15.5-1.5-30,0-50.5,30.5-52.75,48.25H2341V199.25h-44.75ZM2246,340.75c-18.75,10.5-39.75,19.5-64.25,19.5-31,0-52.75-17.75-55-48.75h133.5c0-67.5-20.25-116.75-92-116.75-59.75,0-89.5,46.25-89.5,102,0,63.5,37,100.25,101,100.25,27,0,48-5.25,66.25-15.5ZM2126.75,277c2.25-26,16.5-45.5,44.75-45.5,28,0,39.25,21,40.75,45.5Zm-160.5,115.5h50.25V236h43.75V199.25H2016.5v-24c0-15,5.25-29.75,22-29.75,11,0,17.25,4.25,21.75,6.75l4.25-41.5a176.79,176.79,0,0,0-36.75-4.25c-39.75,0-61.5,27-61.5,65.75v27H1929V236h37.25Zm-200-101.25c0-29,15.75-57.5,48.5-57.5,33,0,48.75,27.75,48.75,57.5,0,32.25-10.25,66.75-48.75,66.75s-48.5-35-48.5-66.75m-52.5,6c0,55.5,37.25,99.75,101,99.75,64,0,101.25-44.25,101.25-99.75,0-63.75-44-102.5-101.25-102.5-57,0-101,38.75-101,102.5M1504.5,392.5h50.25V298c0-24.75,7.75-64.25,44.25-64.25,32.25,0,32.5,32,32.5,55.5V392.5h50.25v-122c0-43.5-19.75-75.75-65.5-75.75-26.25,0-48,12-60.75,30.75h-.75V111H1504.5Zm-229.25,0h50.25V298c0-24.75,7.75-64.25,44.25-64.25,32.25,0,32.5,32,32.5,55.5V392.5h50.5v-122c0-43.5-20-75.75-65.75-75.75-26.25,0-47.75,8.75-63.5,30.75h-.75V199.25h-47.5ZM1223.5,199.25h-50.25v94.5c0,24.75-8,64.25-44.5,64.25-32.25,0-32.5-32-32.5-55.5V199.25H1046v122c0,43.5,19.75,75.75,65.5,75.75,26.25,0,48.25-12,63.5-30.75h.75V392.5h47.75ZM880.5,336.5c0-29.5,33.5-33.25,56-33.25h21.75c0,15-2.25,28.75-10.5,39.75-8,10.5-20,17.25-35.25,17.25-18,0-32-7.25-32-23.75m-25.5-84c17-12.75,38.25-21,59.75-21,29.5,0,43.5,10.5,43.5,41.75H930.5c-21,0-45.75,1.75-65,11.25-19,9.25-33,26.25-33,55,0,36.75,33.5,57.5,67.5,57.5,23,0,48-12,59.75-33.5h.75c.25,6,.25,18.75,2.25,29H1007c-1.25-15-2-28.5-2.25-43.25-.5-14.25-.75-28.75-.75-48.25V276.25c0-57-24.5-81.5-83.25-81.5-21.5,0-47.75,5.75-67.25,14.75Zm-151.25,140H754v-71c0-27.75,0-78.75,41-78.75,9,0,18,1.5,22.5,4.25V196.25c-5.25-1.5-10.5-1.5-15.5-1.5-30,0-50.5,30.5-52.75,48.25h-.75V199.25H703.75Zm-181.5,0h52.5V277.75h88.5V236.5h-88.5V171.75h93V130.5H522.25Z"/><polygon points="2090.75 526 2117 526 2117 656.75 2090.75 656.75 2090.75 526 2090.75 526"/><polygon points="2152.75 526 2230 526 2230 546.75 2179 546.75 2179 579 2225.5 579 2225.5 599.5 2179 599.5 2179 636.25 2230.25 636.25 2230.25 656.75 2152.75 656.75 2152.75 526 2152.75 526"/><polygon points="2263 526 2305 526 2336 625.25 2336.5 625.25 2367.5 526 2409.5 526 2409.5 656.75 2384.25 656.75 2384.25 549 2384 549 2348.75 656.75 2323.75 656.75 2288.5 549 2288 549.25 2288 656.75 2263 656.75 2263 526 2263 526"/></g></g></svg>